<?xml version="1.0" encoding="UTF-8"?>
<svg id="a" data-name="Layer 1" xmlns="http://www.w3.org/2000/svg" width="512" height="512" viewBox="0 0 512 512">
  <path d="M269.054,267.621h-35.294v40.375h37.799c3.314-.734,14.832-3.009,14.832-20.187,0-15.676-17.337-20.187-17.337-20.187Z"/>
  <path d="M280.43,225.611c-.019-14.289-8.831-17.822-8.831-17.822h-37.839v35.644h33.457s13.231-3.567,13.213-17.822Z"/>
  <path d="M256,103.514c-84.081,0-152.486,68.405-152.486,152.486s68.405,152.486,152.486,152.486,152.486-68.405,152.486-152.486-68.405-152.486-152.486-152.486ZM274.22,332.074l-.8.11h-63.654v-148.582h58.37c10.139,0,19.839,4.605,25.946,12.764,5.146,6.875,9.889,16.265,9.889,27.524,0,7.444-5.352,23.133-11.293,28.636,10.119,6.61,18.076,20.913,17.694,37.828-.723,31.959-23.964,40.061-36.152,41.72Z"/>
</svg>