<?xml version="1.0" encoding="UTF-8"?>
<svg id="a" data-name="Layer 1" xmlns="http://www.w3.org/2000/svg" width="512" height="512" viewBox="0 0 512 512">
  <path d="M104.668,316.277h80.492c5.833,0,10.562,4.729,10.562,10.562v80.492c0,12.874,10.436,23.31,23.31,23.31h73.936c12.874,0,23.31-10.436,23.31-23.31v-80.492c0-5.833,4.729-10.562,10.562-10.562h80.492c12.874,0,23.31-10.436,23.31-23.31v-73.936c0-12.874-10.436-23.31-23.31-23.31h-80.492c-5.833,0-10.562-4.729-10.562-10.562v-80.492c0-12.874-10.436-23.31-23.31-23.31h-73.936c-12.874,0-23.31,10.436-23.31,23.31v80.492c0,5.833-4.729,10.562-10.562,10.562h-80.492c-12.874,0-23.31,10.436-23.31,23.31v73.936c0,12.874,10.436,23.31,23.31,23.31Z" fill="none" stroke="#000" stroke-miterlimit="10" stroke-width="20"/>
  <path d="M390.765,255.11l-23.619-14.482c-1.182-.725-2.701.126-2.701,1.512v28.964c0,1.386,1.519,2.237,2.701,1.512l23.619-14.482c1.129-.692,1.129-2.332,0-3.024Z" stroke="#000" stroke-miterlimit="10"/>
  <path d="M185.159,196.344h-80.492c-12.874,0-23.31,10.436-23.31,23.31v73.936c0,12.874,10.436,23.31,23.31,23.31h80.492c5.833,0,20.57,4.729,20.57,10.562v-141.68c0,5.833-14.737,10.562-20.57,10.562ZM147.556,256.622v14.482c0,1.386-1.519,2.237-2.701,1.512l-23.619-14.482c-1.129-.692-1.129-2.332,0-3.024l23.619-14.482c1.182-.725,2.701.126,2.701,1.512v14.482Z"/>
  <path d="M254.488,119.776l-14.482,23.619c-.725,1.182.126,2.701,1.512,2.701h28.964c1.386,0,2.237-1.519,1.512-2.701l-14.482-23.619c-.692-1.129-2.332-1.129-3.024,0Z" stroke="#000" stroke-miterlimit="10"/>
  <path d="M257.513,392.223l14.482-23.619c.725-1.182-.126-2.701-1.512-2.701h-28.964c-1.386,0-2.237,1.519-1.512,2.701l14.482,23.619c.692,1.129,2.332,1.129,3.024,0Z" stroke="#000" stroke-miterlimit="10"/>
</svg>