<?xml version="1.0" encoding="UTF-8"?>
<svg id="a" data-name="Layer 1" xmlns="http://www.w3.org/2000/svg" width="512" height="512" viewBox="0 0 512 512">
  <path d="M345.268,159.15H39.122v193.7h433.756v-66.09c0-70.364-57.245-127.61-127.609-127.61ZM278.005,300.826l-18.749-31.57h-14.751v31.57h-22.609v-97.881h44.115c4.595,0,8.845.965,12.752,2.895,3.905,1.93,7.283,4.459,10.133,7.583,2.848,3.125,5.077,6.665,6.687,10.615,1.607,3.953,2.413,7.951,2.413,11.994,0,3.033-.369,5.952-1.104,8.754-.736,2.805-1.792,5.446-3.171,7.927-1.378,2.481-3.057,4.711-5.031,6.687-1.978,1.977-4.205,3.653-6.687,5.031l21.506,36.396h-25.504Z"/>
  <path d="M264.494,222.796h-19.989v26.745h20.679c2.665,0,4.963-1.262,6.894-3.791,1.93-2.527,2.895-5.767,2.895-9.719,0-4.043-1.103-7.259-3.309-9.65-2.206-2.389-4.597-3.584-7.169-3.584Z"/>
</svg>